<?xml version="1.0" encoding="UTF-8"?>
<svg id="Layer_1" xmlns="http://www.w3.org/2000/svg" version="1.1" viewBox="0 0 661.7 567.2">
  <!-- Generator: Adobe Illustrator 29.8.1, SVG Export Plug-In . SVG Version: 2.1.1 Build 2)  -->
  <g>
    <path d="M155.6,184.4c-12.1,17.4-29.5,24.5-50.2,24.5-39.4,0-78.3-34.5-78.3-83S62.2,45.8,105.2,45.8s37.8,7.4,48.8,24h.6v-18.7h35.6v127.6c0,55.4-38.6,87.6-83.5,87.6s-64.8-19.6-76.9-50.7h41.9c10.2,12.1,22.3,17.1,37.8,17.1,25.4,0,44.9-18.7,46.9-47.7l-.6-.6ZM153.4,126c0-24-19.8-46.6-45.2-46.6s-44.4,20.4-44.4,46.9,19.3,49.1,45.8,49.1,43.8-23.2,43.8-49.3Z" fill="#fff"/>
    <path d="M220.4,204V51h33.6v13.5h.6c9.6-14.3,17.6-18.7,35-18.7h.8v35.6c-22,.8-33.3,12.7-33.3,35.6v87.1h-36.7Z" fill="#fff"/>
    <path d="M421.9,204v-19c-12.1,14.3-34.7,24-53.7,24-43,0-74.1-36.1-74.1-82.4s32.2-80.8,76.6-80.8,42.7,12.7,50.7,24.5h.6v-19.3h33.6v153h-33.6ZM420.8,127.1c0-26.7-18.5-47.7-44.9-47.7s-45.2,21.5-45.2,48.8,19.6,47.1,45.5,47.1,44.7-22,44.7-48.2Z" fill="#fff"/>
    <path d="M484.2,204V0h36.7v64.8c12.1-12.1,30-19,47.7-19,44.7,0,76.9,38.6,76.9,79.4s-28.1,83.8-76.1,83.8-36.9-6.6-51.5-23.4v18.5h-33.6ZM608.8,127.1c0-26.7-19-47.7-44.9-47.7s-45.2,20.9-45.2,46,18.7,49.9,46,49.9,44.1-20.4,44.1-48.2Z" fill="#fff"/>
  </g>
  <g>
    <g>
      <path d="M409.3,457c8.5-4.6,16.8-9.4,25-14.5-2.4-5.2-3.9-11.4-3.9-18.5,0-22.6,16.7-41,38.4-41s22.2,5.8,28.9,14.6c8.1-6.6,16.1-13.4,23.8-20.4-11.6-13.9-28.7-22.9-49-22.9s-31.3,5.9-42.4,19.8h-.5v-15.3h-28.7v102.7c2.8-1.5,5.6-2.9,8.3-4.4Z" fill="#fff"/>
      <path d="M506.3,418.5c.2,1.8.4,3.7.4,5.5,0,21.7-16.7,41-38.2,41s-9.9-1.1-14.8-3.3c-17,12.4-34.6,23.9-52.8,34.4v37h31.3v-56.1c12.5,12.3,23.6,16.7,40.3,16.7,37,0,65.5-31.8,65.5-70.2s-2.2-20.7-6.3-29.9c-8.2,8.5-16.7,16.8-25.4,24.8Z" fill="#fff"/>
    </g>
    <path d="M174.7,386.2v-27.3h15.9v-44h31.2v44h26.4v27.3h-26.4v60.7c0,1.6,0,2.8.2,3.8.4,3.6,1.9,6.5,4.3,8.5,2.4,2.1,5.5,3.1,9.3,3.1s3.5-.2,5.2-.5c1.7-.3,3.6-.9,5.7-1.7l4.4,25.2c-5.1,1.6-9.6,2.7-13.4,3.3-3.9.6-7.8.9-11.7.9-12.4,0-21.8-4.4-28.4-13.1-1.5-1.9-2.6-3.7-3.5-5.5-.9-1.7-1.6-3.7-2.1-5.8-.5-2.1-.8-4.6-1-7.5-.1-2.8-.2-6.4-.2-10.7v-60.9h-15.9Z" fill="#fff"/>
    <path d="M268,489.5v-130.8h28.7v11.5h.5c8.2-12.3,15.1-16,29.9-16h.7v30.4c-18.8.7-28.5,10.8-28.5,30.4v74.5h-31.3Z" fill="#fff"/>
    <g>
      <path d="M359.1,372.2h0c8.7,0,15.7-7,15.7-15.7s-7-15.7-15.7-15.7h0c-8.7,0-15.7,7-15.7,15.7s7,15.7,15.7,15.7Z" fill="#fff"/>
      <path d="M354.7,482.7c6.7-2.7,13.4-5.6,20.1-8.6v-89.4h-31.3v102c3.8-1.3,7.5-2.6,11.3-4Z" fill="#fff"/>
    </g>
  </g>
  <g>
    <path d="M277.3,264.5v-15.2h8.9v-24.5h17.4v24.5h14.7v15.2h-14.7v33.8c0,.9,0,1.6.1,2.1.2,2,1,3.6,2.4,4.8,1.3,1.1,3.1,1.7,5.2,1.7s1.9,0,2.9-.3c1-.2,2-.5,3.2-.9l2.4,14c-2.8.9-5.3,1.5-7.5,1.8-2.1.4-4.3.5-6.5.5-6.9,0-12.1-2.4-15.8-7.3-.8-1.1-1.5-2.1-1.9-3-.5-1-.9-2-1.2-3.2-.3-1.2-.5-2.6-.5-4.2,0-1.6-.1-3.6-.1-5.9v-33.9h-8.9Z" fill="#fff"/>
    <path d="M375.3,322v-37.9c0-15.1-5-21.4-15-21.4s-14.7,7.1-14.7,21.6v37.7h-17.4v-97.1h17.4v29.4c5.4-5.1,11.4-7.6,18.9-7.6s28.2,6.2,28.2,30.8v44.5h-17.5Z" fill="#fff"/>
    <path d="M465.6,322v-9.1c-5.8,6.8-16.5,11.4-25.6,11.4-20.5,0-35.3-17.2-35.3-39.2s15.4-38.4,36.5-38.4,20.3,6,24.1,11.7h.3v-9.2h16v72.8h-16ZM465.1,285.4c0-12.7-8.8-22.7-21.4-22.7s-21.5,10.2-21.5,23.2,9.3,22.4,21.6,22.4,21.3-10.5,21.3-23Z" fill="#fff"/>
    <path d="M491.8,264.5v-15.2h8.9v-24.5h17.4v24.5h14.7v15.2h-14.7v33.8c0,.9,0,1.6.1,2.1.2,2,1,3.6,2.4,4.8,1.3,1.1,3.1,1.7,5.2,1.7s1.9,0,2.9-.3c1-.2,2-.5,3.2-.9l2.4,14c-2.8.9-5.3,1.5-7.5,1.8-2.1.4-4.3.5-6.5.5-6.9,0-12.1-2.4-15.8-7.3-.8-1.1-1.5-2.1-1.9-3-.5-1-.9-2-1.2-3.2-.3-1.2-.5-2.6-.5-4.2,0-1.6-.1-3.6-.1-5.9v-33.9h-8.9Z" fill="#fff"/>
  </g>
  <path d="M75.6,291.4c-25.9,23.8-43.7,58-46.4,93.1-.9,14.3,2.2,29,8.2,41.6,4.8,10.2,11.2,19.3,17.7,28.4,7.6,10.8,16,20.5,26.8,28.4,53,36.9,155.2,30.3,216.9,17.8,19.4-4,38.6-9.2,57.1-16.3,18.6-7.5,36.9-16.1,54.6-25.7,107.6-58.5,196-152,248.9-262.7,0,0,2.2.9,2.2.9-15.2,38.6-34.5,75.8-57.7,110.6-82,123.5-210.4,219.1-356.5,250.4-63.5,13.4-136.5,16.5-194-19.6-20.4-12.9-37.6-31.5-46.4-54.2-10.3-27.7-8.4-59.4-.7-87.1,9.5-37.2,30.2-69,56.9-96,3.6-3.7,7.4-7.3,11.3-10.8,0,0,1.1,1.3,1.1,1.3h0Z" fill="#fff"/>
</svg>